{"title":"Ant-Man {2015} FULL CAM XVID AC3-MRG","uid":12138544,"size":1240303721,"categoryP":"video","categoryS":"movies","magnet":"?xt=urn:btih:c483b9fba8d8c70d8a423e94716f41882f280a3c&amp;dn=Ant-Man+%7B2015%7D+FULL+CAM+XVID+AC3-MRG&amp;tr=udp%3A%2F%2Ftracker.openbittorrent.com%3A80&amp;tr=udp%3A%2F%2Fopen.demonii.com%3A1337&amp;tr=udp%3A%2F%2Ftracker.coppersurfer.tk%3A6969&amp;tr=udp%3A%2F%2Fexodus.desync.com%3A6969","seeders":4,"leechers":1,"uploader":"makintos13","files":5,"time":1437281109,"description":" &lt;a href=&quot;http://imgmak.com/Dv&quot; rel=&quot;nofollow&quot; target=&quot;_NEW&quot;&gt;http://imgmak.com/Dv&lt;/a&gt;\n\nAnt-Man {2015} FULL CAM XVID AC3-MRG\n\nFormat : AVI\nFormat/Info : Audio Video Interleave\nFile size : 1.15 GiB\nDuration : 1h 47mn\nOverall bit rate : 1 536 Kbps\nWriting library : VirtualDub build 35491/release\n\nVideo\nID : 0\nFormat : MPEG-4 Visual\nFormat profile : Advanced Simple@L5\nFormat settings, BVOP : 2\nFormat settings, QPel : No\nFormat settings, GMC : No warppoints\nFormat settings, Matrix : Default (H.263)\nCodec ID : XVID\nCodec ID/Hint : XviD\nDuration : 1h 47mn\nBit rate : 1 398 Kbps\nWidth : 720 pixels\nHeight : 320 pixels\nDisplay aspect ratio : 2.25:1\nFrame rate : 23.976 fps\nColor space : YUV\nChroma subsampling : 4:2:0\nBit depth : 8 bits\nScan type : Progressive\nCompression mode : Lossy\nBits/(Pixel*Frame) : 0.253\nStream size : 1.05 GiB (91%)\nWriting library : XviD 73\n\nAudio\nID : 1\nFormat : AC-3\nFormat/Info : Audio Coding 3\nMode extension : CM (complete main)\nFormat settings, Endianness : Big\nCodec ID : 2000\nDuration : 1h 47mn\nBit rate mode : Constant\nBit rate : 128 Kbps\nChannel(s) : 2 channels\nChannel positions : Front: L R\nSampling rate : 48.0 KHz\nCompression mode : Lossy\nStream size : 98.6 MiB (8%)\nAlignment : Split accross interleaves\nInterleave, duration : 42 ms (1.00 video frame)\nInterleave, preload duratio : 500 ms","torrent":{"xt":"urn:btih:c483b9fba8d8c70d8a423e94716f41882f280a3c","amp;dn":"Ant-Man+%7B2015%7D+FULL+CAM+XVID+AC3-MRG","amp;tr":["udp%3A%2F%2Ftracker.openbittorrent.com%3A80","udp%3A%2F%2Fopen.demonii.com%3A1337","udp%3A%2F%2Ftracker.coppersurfer.tk%3A6969","udp%3A%2F%2Fexodus.desync.com%3A6969"],"infoHash":"c483b9fba8d8c70d8a423e94716f41882f280a3c","infoHashBuffer":{"type":"Buffer","data":[196,131,185,251,168,216,199,13,138,66,62,148,113,111,65,136,47,40,10,60]},"announce":[],"urlList":[]}}